<svg height="496pt" viewBox="0 0 496 496" width="496pt" xmlns="http://www.w3.org/2000/svg"><path d="m8 88h480v-80h-480zm160-56c8.835938 0 16 7.164062 16 16s-7.164062 16-16 16-16-7.164062-16-16 7.164062-16 16-16zm-56 0c8.835938 0 16 7.164062 16 16s-7.164062 16-16 16-16-7.164062-16-16 7.164062-16 16-16zm-56 0c8.835938 0 16 7.164062 16 16s-7.164062 16-16 16-16-7.164062-16-16 7.164062-16 16-16zm0 0" fill="#a1a1a2"/><path d="m8 456c0 17.671875 14.328125 32 32 32h416c17.671875 0 32-14.328125 32-32v-368h-480zm344-152 24-48 24 48 24-80-24 80-24-48-24 48-24-80zm-128 0 24-48 24 48 24-80-24 80-24-48-24 48-24-80zm-128 0 24-48 24 48 24-80-24 80-24-48-24 48-24-80zm0 0" fill="#e0e0e2"/><path d="m72 48c0 8.835938-7.164062 16-16 16s-16-7.164062-16-16 7.164062-16 16-16 16 7.164062 16 16zm0 0" fill="#d80027"/><path d="m128 48c0 8.835938-7.164062 16-16 16s-16-7.164062-16-16 7.164062-16 16-16 16 7.164062 16 16zm0 0" fill="#f9ed32"/><path d="m184 48c0 8.835938-7.164062 16-16 16s-16-7.164062-16-16 7.164062-16 16-16 16 7.164062 16 16zm0 0" fill="#8dc63f"/><path d="m488 0h-480c-4.417969 0-8 3.582031-8 8v448c.0273438 22.082031 17.917969 39.972656 40 40h416c22.082031-.027344 39.972656-17.917969 40-40v-448c0-4.417969-3.582031-8-8-8zm-8 16v64h-464v-64zm-24 464h-416c-13.253906 0-24-10.746094-24-24v-360h464v360c0 13.253906-10.746094 24-24 24zm0 0"/><path d="m56 72c13.253906 0 24-10.746094 24-24s-10.746094-24-24-24-24 10.746094-24 24 10.746094 24 24 24zm0-32c4.417969 0 8 3.582031 8 8s-3.582031 8-8 8-8-3.582031-8-8 3.582031-8 8-8zm0 0"/><path d="m112 72c13.253906 0 24-10.746094 24-24s-10.746094-24-24-24-24 10.746094-24 24 10.746094 24 24 24zm0-32c4.417969 0 8 3.582031 8 8s-3.582031 8-8 8-8-3.582031-8-8 3.582031-8 8-8zm0 0"/><path d="m168 72c13.253906 0 24-10.746094 24-24s-10.746094-24-24-24-24 10.746094-24 24 10.746094 24 24 24zm0-32c4.417969 0 8 3.582031 8 8s-3.582031 8-8 8-8-3.582031-8-8 3.582031-8 8-8zm0 0"/><path d="m298.296875 216.335938c-4.234375-1.269532-8.691406 1.136718-9.960937 5.367187l-18.199219 60.695313-14.9375-29.972657c-1.503907-2.523437-4.222657-4.070312-7.160157-4.070312-2.933593 0-5.65625 1.546875-7.160156 4.070312l-15.015625 29.972657-18.199219-60.671876c-1.269531-4.230468-5.726562-6.632812-9.960937-5.367187-4.230469 1.269531-6.636719 5.726563-5.367187 9.960937l24 80c.941406 3.144532 3.707031 5.398438 6.976562 5.679688s6.382812-1.460938 7.847656-4.398438l16.839844-33.714843 16.800781 33.6875c1.359375 2.726562 4.152344 4.441406 7.199219 4.425781.230469.011719.457031.011719.6875 0 3.269531-.28125 6.035156-2.53125 6.976562-5.671875l24-80c.617188-2.035156.398438-4.238281-.605468-6.113281-1.007813-1.875-2.722656-3.269532-4.761719-3.878906zm0 0"/><path d="m426.296875 216.335938c-4.234375-1.269532-8.691406 1.136718-9.960937 5.367187l-18.199219 60.695313-14.9375-29.972657c-1.503907-2.523437-4.222657-4.070312-7.160157-4.070312-2.933593 0-5.65625 1.546875-7.160156 4.070312l-15.015625 29.972657-18.199219-60.671876c-1.269531-4.230468-5.726562-6.632812-9.960937-5.367187-4.230469 1.269531-6.636719 5.726563-5.367187 9.960937l24 80c.941406 3.144532 3.707031 5.398438 6.976562 5.679688s6.382812-1.460938 7.847656-4.398438l16.839844-33.714843 16.800781 33.6875c1.359375 2.726562 4.152344 4.441406 7.199219 4.425781.230469.011719.457031.011719.6875 0 3.269531-.28125 6.035156-2.53125 6.976562-5.671875l24-80c.617188-2.035156.398438-4.238281-.605468-6.113281-1.007813-1.875-2.722656-3.269532-4.761719-3.878906zm0 0"/><path d="m170.296875 216.335938c-4.234375-1.269532-8.691406 1.136718-9.960937 5.367187l-18.199219 60.695313-14.9375-29.972657c-1.503907-2.523437-4.222657-4.070312-7.160157-4.070312-2.933593 0-5.65625 1.546875-7.160156 4.070312l-15.015625 29.972657-18.199219-60.671876c-1.269531-4.230468-5.726562-6.632812-9.960937-5.367187-4.230469 1.269531-6.636719 5.726563-5.367187 9.960937l24 80c.941406 3.144532 3.707031 5.398438 6.976562 5.679688s6.382812-1.460938 7.847656-4.398438l16.839844-33.714843 16.839844 33.6875c1.355468 2.714843 4.128906 4.425781 7.160156 4.425781.230469.011719.457031.011719.6875 0 3.269531-.28125 6.035156-2.53125 6.976562-5.671875l24-80c.617188-2.035156.398438-4.238281-.605468-6.113281-1.007813-1.875-2.722656-3.269532-4.761719-3.878906zm0 0"/></svg>